<?xml version="1.0" encoding="UTF-8" standalone="no"?>
<svg
   viewBox="0 0 300 300"
   version="1.1"
   id="svg53"
   xmlns="http://www.w3.org/2000/svg"
   xmlns:svg="http://www.w3.org/2000/svg">
  <defs
     id="defs57" />
  <g
     id="afab20fe-bbd1-498b-814a-bb90adc5a8d6"
     data-name="ants">
    <circle
       cx="150"
       cy="150"
       r="150"
       style="fill:#ce6f2e"
       id="circle2" />
    <path
       d="M208.69,162.92l24.11-14s7.62-3.81,7.62,3.8c0,0,1.27,48.23,7.61,53.31,0,0-8.88-2.54-11.42-50.77,0,0,0-2.54-2.54-1.27L210,165.45l-1.27-2.53"
       style="fill:#141414"
       id="path4" />
    <path
       d="M207.54,151.31a22.61,22.61,0,0,0-1.87-4.17,4,4,0,0,0-1.45-1.81,1.93,1.93,0,0,0-1.19-.23,2.19,2.19,0,0,0-2,0,9.9,9.9,0,0,0-4,2.88c-1.13,1.51-1.18,3.4-1.08,5.21a17.54,17.54,0,0,0,.33,3,2.34,2.34,0,0,0,.33.76,3.29,3.29,0,0,0,.83,1.5,4.1,4.1,0,0,0,2.49,1,8.15,8.15,0,0,0,4.11-.6,6.24,6.24,0,0,0,3.21-2.82A6,6,0,0,0,207.54,151.31Z"
       style="fill:#141414"
       id="path6" />
    <path
       d="M212.16,165a15.54,15.54,0,0,0-1.18-3.08,18.22,18.22,0,0,0-1.43-2.64,2.54,2.54,0,0,0-.29-.36l-.11-.17a5.19,5.19,0,0,0-1.07-1.89.46.46,0,0,0-.71.09l-.65,1.16-.33.26a9.37,9.37,0,0,1-4.5,2.3,2,2,0,0,0-.42,0,4.09,4.09,0,0,1-1.2-.28.36.36,0,0,0-.27,0,.42.42,0,0,0-.42.44,5.56,5.56,0,0,0,.08.7l.06.25a5.79,5.79,0,0,0,.29.86,1.42,1.42,0,0,0,0,.29,15.27,15.27,0,0,0,1.17,3.19,11.64,11.64,0,0,0,1.46,2.54,5.11,5.11,0,0,0,2.63,1.73,8.07,8.07,0,0,0,3.39,0,4.13,4.13,0,0,0,3-1.86A4.93,4.93,0,0,0,212.16,165Z"
       style="fill:#141414"
       id="path8" />
    <path
       d="M210.87,201.23a9.62,9.62,0,0,1-1.68-.15,11.24,11.24,0,0,1-8.78-8.3c-1-4.11-.37-9.56,1.87-14.94a19.09,19.09,0,0,1,.87-1.77,25.07,25.07,0,0,1,2.38-4.22l.13-.17a8.09,8.09,0,0,0,1.23.09,12.79,12.79,0,0,0,2-.17,5.3,5.3,0,0,0,3.89-2.44,5.85,5.85,0,0,0,.68-3.9l0,0a3.79,3.79,0,0,1,.59.46,3.84,3.84,0,0,1,.37.45l.12.16.16.11a1.84,1.84,0,0,1,.22.17l.1.08.08.09a4.21,4.21,0,0,1,.48.57l.16.22.31.26.25.22a30.36,30.36,0,0,1,4.13,6.33,27.14,27.14,0,0,1,2.7,7,18,18,0,0,1-2.5,13.79c-1.53,2.26-4.85,6-9.77,6Z"
       style="fill:#141414"
       id="path10" />
    <path
       d="M195,153.61c.08-.85.2-2.19.2-2.19a14.28,14.28,0,0,1,.17-1.49c0-.16.08-.54,0-.53h-.07s-.23.49-.49,1.1a38.42,38.42,0,0,1-2.61,5.11c-1.6,2.18-2.79,2-5.18,1.59-1.19-.2-10.6-20.39-10.6-20.39a3.62,3.62,0,0,0-1.63-1.56L161,129.76c-.62-.24-.65-.18-.06.13l11.38,6a4.05,4.05,0,0,1,1.56,1.67s10.23,22.77,12.62,23.16c3.77.64,8.18-2.65,8.18-2.65a4.7,4.7,0,0,0,.93-.79s-.15-.25-.26-.41l-.12-.15"
       style="fill:#141414"
       id="path12" />
    <path
       d="M205.06,151.63l17.47-3.8s5.85-.69,3-5.09c0,0-15.32-27.92-15.92-36a.21.21,0,0,0-.41,0c-.69,3.28.74,11,13.17,36,0,0,1,1.46-1,1.69L203.06,147l.23,2"
       style="fill:#141414"
       id="path14" />
    <path
       d="M217.44,196.48l-18-10.4s-5.67-2.84-5.67,2.83c0,0-1,35.93-5.67,39.71,0,0,6.61-1.89,8.51-37.81,0,0,0-1.9,1.89-.95l18,8.51.95-1.89"
       style="fill:#141414"
       id="path16" />
    <path
       d="M201.58,128.61a18.92,18.92,0,0,0-3.67-3.7,20.42,20.42,0,0,0-4.38-2.87l-.47-.15h0a4.48,4.48,0,0,0-.62-.31l-.13,0h0a2,2,0,0,0-.33-.08,2.58,2.58,0,0,0-.44-.22,2.38,2.38,0,0,0-1.22-.18h-.14a3.21,3.21,0,0,0-.53.15l-.13,0a4.85,4.85,0,0,0-.49.29l-.11.09a2.71,2.71,0,0,0-.71,1,3.29,3.29,0,0,0-.14.54s0,.06,0,.09a35.35,35.35,0,0,0-1.19,4.55,17,17,0,0,0-.34,3.29,13,13,0,0,0-.06,1.4c.06,3.41.87,7.35,3,10.09a8.32,8.32,0,0,0,8.4,3c3.5-.88,5.37-3.9,6-7.29A12.76,12.76,0,0,0,201.58,128.61Zm-11.64,12.14a1.82,1.82,0,1,1,1.82-1.82A1.82,1.82,0,0,1,189.94,140.75Zm10.89-3.63a1.82,1.82,0,1,1,1.81-1.82A1.83,1.83,0,0,1,200.83,137.12Z"
       style="fill:#141414"
       id="path18" />
    <path
       d="M129.39,130.82l0-.14a4.59,4.59,0,0,0-.24-.5.75.75,0,0,0-.07-.12,3.81,3.81,0,0,0-.37-.43.52.52,0,0,0-.11-.1,2.39,2.39,0,0,0-.57-.36,3.09,3.09,0,0,0-.51-.18,3.53,3.53,0,0,0-.56-.05h-.1a33.36,33.36,0,0,0-4.68-.43,16.78,16.78,0,0,0-3.31.2,11.37,11.37,0,0,0-1.4.17c-3.36.61-7.12,2.06-9.47,4.62a8.33,8.33,0,0,0-1.61,8.79c1.44,3.32,4.73,4.67,8.19,4.74a12.72,12.72,0,0,0,9.2-3.84,18.79,18.79,0,0,0,3.06-4.23,20.32,20.32,0,0,0,2.11-4.8c0-.16.05-.32.08-.48,0,0,0,0,0,0a5.16,5.16,0,0,0,.2-.67l0-.14h0a1.87,1.87,0,0,0,0-.34,2.54,2.54,0,0,0,.14-.47,3.17,3.17,0,0,0,.07-.69A2.54,2.54,0,0,0,129.39,130.82Zm-15.71,7.36a1.72,1.72,0,1,1,1.71-1.71A1.71,1.71,0,0,1,113.68,138.18Z"
       style="fill:#141414"
       id="path20" />
    <path
       d="M109.5,156.21a21.35,21.35,0,0,0,2.69-3.38,3.82,3.82,0,0,0,.89-2,1.85,1.85,0,0,0-.32-1.09,2.07,2.07,0,0,0-.86-1.69,9.28,9.28,0,0,0-4.16-2.12,7.27,7.27,0,0,0-4.84,1.35,16.4,16.4,0,0,0-2.36,1.57,2.39,2.39,0,0,0-.5.61,3.08,3.08,0,0,0-.89,1.36,3.83,3.83,0,0,0,.2,2.54,7.85,7.85,0,0,0,2.29,3.2A6,6,0,0,0,105.4,158,5.76,5.76,0,0,0,109.5,156.21Z"
       style="fill:#141414"
       id="path22" />
    <path
       d="M63.88,172.44a9.91,9.91,0,0,1-.3-1.57,10.66,10.66,0,0,1,5.36-10.1c3.48-2,8.61-2.76,14.08-2.08.58.08,1.18.19,1.84.34a24.41,24.41,0,0,1,4.44,1.11l.19.07a8.66,8.66,0,0,0,.23,1.15,13.28,13.28,0,0,0,.66,1.75,5,5,0,0,0,3.21,2.94,5.48,5.48,0,0,0,3.72-.37v0a3.26,3.26,0,0,1-.27.65,4.5,4.5,0,0,1-.31.45l-.11.15-.07.17-.09.25-.06.1,0,.1a5.34,5.34,0,0,1-.41.59l-.15.19-.16.35-.14.29a28.39,28.39,0,0,1-4.72,5.36,25.62,25.62,0,0,1-5.69,4.23,17,17,0,0,1-13.2,1.21c-2.45-.83-6.75-2.89-8-7.37Z"
       style="fill:#141414"
       id="path24" />
    <path
       d="M90.07,165,58.54,163.9h0c-.12,0-9.61.31-5.58,7.87,0,0,22.24,44.37,21.18,55.85a.17.17,0,0,0,.33.08c1.15-3.73,1.86-16.58-16.35-55.43,0,0-1.35-2.53,1.86-2.62l30-1.45a.18.18,0,0,0,.16-.18l-.08-3"
       style="fill:#141414"
       id="path26" />
    <path
       d="M96.73,157.85l-17.1-22.23a3.67,3.67,0,0,0-.37-.43c-1.06-1-5.65-4.95-7.56,3.54,0,0-12,51.25-19,56.42,0,0,5.71,8,21.65-52.46,0,0,.72-3.21,2.59-1.1l15.51,16.58a2.75,2.75,0,0,0,4.3-.32h0"
       style="fill:#141414"
       id="path28" />
    <path
       d="M108.1,114.57l.93.11a1.75,1.75,0,0,1,1.45,2.34l-2.3,6.34a1.76,1.76,0,0,0,0,1.22l3.32,8.74-1.63.32-3.44-9.07a1.81,1.81,0,0,1-.12-.56l-.22-7.64A1.77,1.77,0,0,1,108.1,114.57Z"
       style="fill:#141414"
       id="path30" />
    <path
       d="M117.93,114.74l.55.38a2.15,2.15,0,0,1,.22,2.65l-3.25,5.32a2.5,2.5,0,0,0-.34,1.16l-.47,9.25-1.09-.17.48-9.62a2.28,2.28,0,0,1,.1-.57l2.05-7.29C116.47,114.81,117.3,114.29,117.93,114.74Z"
       style="fill:#141414"
       id="path32" />
    <path
       d="M209.61,189.72l18-10.4s5.68-2.84,5.68,2.83c0,0,.94,35.93,5.67,39.71,0,0-6.62-1.89-8.51-37.82,0,0,0-1.89-1.89-.94l-18,8.51-.94-1.89"
       style="fill:#141414"
       id="path34" />
    <path
       d="M74.42,173.41l19.63-.07s6,.35,3.32,5c0,0-16.16,29.92-14.06,35.25,0,0-4.54-4.67,10.84-35,0,0,.89-1.55-1.1-1.67L74.3,175.4l.12-2"
       style="fill:#141414"
       id="path36" />
    <path
       d="M205.05,166.82l-19.66-2.48s-6-.39-3.94,4.6c0,0,12.52,32,9.76,37,0,0,5.12-4.12-6.56-36.43,0,0-.7-1.66,1.31-1.53l19,.81.12-2"
       style="fill:#141414"
       id="path38" />
    <path
       d="M109.6,163.71s-1.91.44-1.39-1.69l1.42-6.45a9.45,9.45,0,0,1-3.39-.26h0l-2,6.65s-1.55,6.38,4.18,5.07c0,0,36.51-7.38,41.43-3.48C149.78,163.54,146.33,157.29,109.6,163.71Z"
       style="fill:#141414"
       id="path40" />
    <path
       d="M99.6,161.64a2.8,2.8,0,0,1-.11-1,2.86,2.86,0,0,1-.57-1.11c-.08-.36-.12-.72-.17-1.09,0-.16-.06-.32-.1-.48a.43.43,0,0,0,0-.07c-.17-.22-.34-.45-.53-.68L98,157.1a.61.61,0,0,1-.14-.07c-.12-.05-.1,0,0,0a1.11,1.11,0,0,0-.3-.12c-.21-.07-.43-.13-.64-.18l-1.18-.3a6.09,6.09,0,0,0,.31,3.72s11.83,38.78,11.18,49.54c0,.29.33.43.39.15C108.54,206,108.88,194.44,99.6,161.64Z"
       style="fill:#141414"
       id="path42" />
    <path
       d="M101.88,141.41h0c-.1-.1-5-4.63-6.33,2.52,0,0-1,3.57-2.57,10.09.16-.14.31-.29.48-.43a14.19,14.19,0,0,1,2.62-1.87.84.84,0,0,1,.25-.09l.17-.11c.46-1.85.93-2.63,1.4-4.64,0,0,.47-2.41,2.11-.84l5.21,3.54c.08.08.2,0,.27-.06l1.28-2Z"
       style="fill:#141414"
       id="path44" />
    <path
       d="M91.25,165.49a5.65,5.65,0,0,1-.64-.82c-2.79,10.84-6.29,22.74-9.13,27.19-.15.24.08.52.26.32,2-2.21,5.86-8.4,11-25.62A5.34,5.34,0,0,1,91.25,165.49Z"
       style="fill:#141414"
       id="path46" />
    <path
       d="M97.28,164.43a15,15,0,0,0,2.5-1.85,17.32,17.32,0,0,0,2-2,2,2,0,0,0,.25-.35l.13-.15a5,5,0,0,0,1.45-1.45.44.44,0,0,0-.27-.63l-1.21-.3-.32-.23A8.84,8.84,0,0,1,98.62,154a2.4,2.4,0,0,0-.12-.38,3.72,3.72,0,0,1,0-1.16.36.36,0,0,0-.08-.25.4.4,0,0,0-.5-.27,5.73,5.73,0,0,0-.62.25l-.22.12a4.91,4.91,0,0,0-.71.48,2.5,2.5,0,0,0-.25.09,14.73,14.73,0,0,0-2.62,1.88,11,11,0,0,0-1.94,2,4.8,4.8,0,0,0-.91,2.83,7.76,7.76,0,0,0,.82,3.1A3.91,3.91,0,0,0,93.89,165,4.63,4.63,0,0,0,97.28,164.43Z"
       style="fill:#141414"
       id="path48" />
    <path
       d="M134.77,115.45l38.46-41.91,63.12,38.7-4,10.5L174,77.68l-45.57,49.25-3.09-2.08L133.49,80l-7.67-5.16,1.67-2.47,13.84,9.32Z"
       style="fill:#141414"
       id="path50" />
  </g>
</svg>
